<svg width="148" height="148" viewBox="0 0 148 148" fill="none" xmlns="http://www.w3.org/2000/svg">
<circle opacity="0.5" cx="74" cy="74" r="74" fill="#CBCDD5"/>
<path d="M46.2858 62.0675C45.9778 62.0675 45.6754 61.968 45.4228 61.7779C45.0595 61.504 44.8457 61.0724 44.8457 60.614V57.2686C44.8457 55.2326 46.4863 53.5767 48.5035 53.5767H67.4447C69.4619 53.5767 71.1024 55.2326 71.1024 57.2686V60.4395C71.1024 61.2423 70.4577 61.8931 69.6624 61.8931H47.4866C47.2185 61.8931 46.9504 61.9322 46.6912 62.0093C46.5594 62.0474 46.422 62.0675 46.2858 62.0675ZM47.7258 58.9849H68.2223V57.2675C68.2223 56.8415 67.8667 56.4826 67.4447 56.4826H48.5035C48.0825 56.4826 47.7258 56.8415 47.7258 57.2675V58.9849Z" fill="#152146"/>
<path d="M64.8099 113H42.2984C40.5271 113 39.0859 111.545 39.0859 109.757V95.5228C39.0859 93.7349 40.5271 92.2803 42.2984 92.2803H64.8099C66.5811 92.2803 68.0223 93.7349 68.0223 95.5228V109.757C68.0223 111.545 66.5811 113 64.8099 113ZM42.2984 95.1873C42.1178 95.1873 41.9661 95.3405 41.9661 95.5228V109.757C41.9661 109.94 42.1178 110.093 42.2984 110.093H64.8099C64.9904 110.093 65.1422 109.94 65.1422 109.757V95.5228C65.1422 95.3405 64.9904 95.1873 64.8099 95.1873H42.2984Z" fill="#152146"/>
<path d="M67.7771 100.255H39.4401C38.6447 100.255 38 99.604 38 98.8012C38 97.9984 38.6447 97.3477 39.4401 97.3477H67.776C68.5714 97.3477 69.2161 97.9984 69.2161 98.8012C69.2161 99.604 68.5725 100.255 67.7771 100.255Z" fill="#152146"/>
<path d="M104.835 79.3219H98.1206C96.1035 79.3219 94.4629 77.666 94.4629 75.63V70.1457C94.4629 69.4637 94.9326 68.8733 95.5928 68.7269L106.292 66.3431C106.292 66.3431 106.294 66.3431 106.295 66.3431C106.373 66.3252 106.462 66.2995 106.573 66.2592C107.014 66.1016 107.502 66.1709 107.884 66.4426C108.266 66.7154 108.492 67.157 108.492 67.6289V75.6289C108.492 77.666 106.852 79.3219 104.835 79.3219ZM97.343 71.3141V75.63C97.343 76.056 97.6986 76.4149 98.1206 76.4149H104.835C105.256 76.4149 105.612 76.056 105.612 75.63V69.4715L97.343 71.3141Z" fill="#152146"/>
<path d="M105.484 94.3446L103.016 102.168C102.667 103.277 102.897 104.426 103.648 105.319C104.398 106.213 105.507 106.659 106.689 106.542C107.872 106.425 108.872 105.77 109.433 104.747C109.994 103.724 109.995 102.552 109.434 101.533L105.484 94.3446Z" fill="white"/>
<path d="M98.4836 83.3446L96.0164 91.1682C95.6672 92.2768 95.897 93.4257 96.6475 94.3194C97.3981 95.2131 98.5069 95.6589 99.6895 95.5419C100.872 95.425 101.872 94.7705 102.433 93.7471C102.994 92.7237 102.995 91.5519 102.434 90.5333L98.4836 83.3446Z" fill="white"/>
<path d="M99.6025 96.3144C98.0997 96.4347 96.6459 95.8124 95.7141 94.6506C94.7823 93.4888 94.5058 91.9535 94.9745 90.5442L97.4238 83.1826C97.5771 82.7217 97.9938 82.3984 98.4857 82.359C98.9775 82.3197 99.4404 82.5725 99.665 83.0032L103.254 89.8816C103.941 91.1983 103.912 92.7581 103.177 94.0533C102.442 95.3486 101.105 96.1941 99.6025 96.3144ZM98.6549 84.4732L96.4753 91.0225C96.1668 91.9505 96.3414 92.9219 96.955 93.6869C97.5685 94.4519 98.4882 94.8455 99.478 94.7663C100.468 94.6871 101.313 94.1522 101.797 93.2994C102.281 92.4465 102.3 91.4597 101.847 90.5926L98.6549 84.4732Z" fill="#152146"/>
<path d="M106.603 107.314C105.1 107.435 103.646 106.812 102.714 105.651C101.782 104.489 101.506 102.953 101.975 101.544L104.424 94.1826C104.577 93.7217 104.994 93.3984 105.486 93.359C105.978 93.3197 106.44 93.5725 106.665 94.0032L110.254 100.882C110.941 102.198 110.912 103.758 110.177 105.053C109.442 106.349 108.105 107.194 106.603 107.314ZM105.655 95.4732L103.475 102.022C103.167 102.951 103.341 103.922 103.955 104.687C104.569 105.452 105.488 105.846 106.478 105.766C107.468 105.687 108.313 105.152 108.797 104.299C109.281 103.447 109.3 102.46 108.847 101.593L105.655 95.4732Z" fill="#152146"/>
<path d="M65.978 56.4835H49.9889C49.1935 56.4835 48.5488 55.8328 48.5488 55.03V44.7905C48.5488 39.9435 52.4558 36 57.2579 36H93.6028C95.9368 36 97.8355 37.9164 97.8355 40.2722C97.8355 42.6281 95.9368 44.5445 93.6028 44.5445H70.8786C68.97 44.5445 67.4181 46.111 67.4181 48.0374V55.03C67.4181 55.8328 66.7733 56.4835 65.978 56.4835ZM51.4289 53.5765H64.5379V48.0374C64.5379 44.5087 67.3826 41.6374 70.8786 41.6374H93.6039C94.3494 41.6374 94.9564 41.0247 94.9564 40.2722C94.9564 39.5198 94.3494 38.9071 93.6039 38.9071H57.259C54.0454 38.9071 51.4301 41.5458 51.4301 44.7905V53.5765H51.4289Z" fill="#152146"/>
<path d="M51.4297 53.5764H64.5387V48.0374C64.5387 44.5086 67.3833 41.6374 70.8794 41.6374H93.6046C94.3501 41.6374 94.9572 41.0247 94.9572 40.2722C94.9572 39.5197 94.3501 38.907 93.6046 38.907H57.2597C54.0462 38.907 51.4308 41.5457 51.4308 44.7904V53.5764H51.4297Z" fill="white"/>
<path d="M47.4881 61.8931C45.9383 61.8931 44.6777 63.1655 44.6777 64.7297V91.7295C44.6777 92.0336 44.9225 92.2807 45.2238 92.2807H62.1324C62.4337 92.2807 62.6785 92.0336 62.6785 91.7295V81.3155C62.6785 79.8307 63.1858 78.3761 64.1075 77.2188C65.0291 76.0616 66.3274 75.2476 67.763 74.9278L106.292 66.3453C107.331 66.1139 108.099 65.2049 108.12 64.184C108.132 63.5758 107.907 63.0011 107.485 62.5673C107.064 62.1335 106.501 61.8942 105.898 61.8942H47.4881V61.8931Z" fill="#F9CBC0"/>
<path d="M62.1316 95.1866H45.2231C43.3333 95.1866 41.7969 93.6347 41.7969 91.7283V64.7285C41.7969 61.5621 44.3491 58.9849 47.4873 58.9849H105.9C107.282 58.9849 108.576 59.5338 109.543 60.5301C110.51 61.5263 111.027 62.8445 111 64.2399C110.952 66.6237 109.271 68.6564 106.913 69.1808L68.3837 77.7644C66.7465 78.1289 65.559 79.6216 65.559 81.3144V91.7283C65.559 93.6358 64.0214 95.1866 62.1316 95.1866ZM47.4873 61.893C45.9376 61.893 44.677 63.1654 44.677 64.7296V91.7295C44.677 92.0336 44.9218 92.2807 45.2231 92.2807H62.1316C62.4329 92.2807 62.6778 92.0336 62.6778 91.7295V81.3155C62.6778 79.8307 63.1851 78.376 64.1067 77.2188C65.0284 76.0616 66.3266 75.2476 67.7623 74.9278L106.292 66.3453C107.331 66.1139 108.098 65.2048 108.119 64.184C108.132 63.5758 107.907 63.0011 107.485 62.5672C107.064 62.1334 106.5 61.8942 105.897 61.8942H47.4873V61.893Z" fill="#152146"/>
</svg>
